<?xml version="1.0" encoding="utf-8"?>
<!-- Generator: Adobe Illustrator 17.1.0, SVG Export Plug-In . SVG Version: 6.00 Build 0)  -->
<!DOCTYPE svg PUBLIC "-//W3C//DTD SVG 1.1//EN" "http://www.w3.org/Graphics/SVG/1.1/DTD/svg11.dtd">
<svg version="1.1" xmlns="http://www.w3.org/2000/svg" xmlns:xlink="http://www.w3.org/1999/xlink" x="0px" y="0px"
	 viewBox="0 0 2000 300" enable-background="new 0 0 2000 300" xml:space="preserve">
<g id="Background">
	<rect x="-1" y="1" fill="#E1EDF4" width="2000" height="300"/>
</g>
<g id="Large_Yellow_Stars_w_x2F__Border">
	<g>
		<g>
			<g>
				<g>
					<g>
						<polyline fill="none" stroke="#13374C" stroke-linecap="round" stroke-linejoin="round" points="111.4,112.4 113.7,111.1 
							112.4,113.6 114.4,112.4 113.1,114.9 115.1,113.7 113.6,115.8 115.6,114.7 114.3,117.1 116.3,116 115.2,118.8 117.2,117.6 
							115.7,119.8 117.7,118.6 116.4,121.1 118.4,119.9 117,122.2 119,121.1 117.9,123.9 119.9,122.7 118.4,125 120.4,123.8 
							119,126 121,124.9 119.8,127.5 121.8,126.3 120.3,128.4 122.3,127.3 121.1,130 123.3,128.8 122.2,131.3 124.8,129.8 
							124.1,132.2 127.5,130.3 126.3,132.5 129.6,130.6 128.7,132.8 132,130.8 130.9,133 134.3,131.1 133,133.3 136.3,131.3 
							136.1,133.6 139.5,131.7 139.3,134 142.7,132.1 141.1,134.2 144.5,132.3 143.5,134.5 146.8,132.5 144.5,135.1 148.6,132.8 
							142.4,138.1 149.6,133.9 139,141.6 146.5,137.3 134.5,146.3 142,141.9 130.2,150.9 137.3,146.8 129.6,152.5 134.6,149.6 
							129.6,153.6 132.7,151.9 129.9,155.1 132.2,153.8 130.1,156.2 132.3,154.9 130.3,157.2 132.5,156 130.7,159 132.8,157.8 
							131,160.6 133.2,159.4 131.4,162.4 133.5,161.2 131.8,164.3 133.9,163.1 132.1,165.8 134.2,164.5 132.4,167.3 134.5,166.1 
							132.6,168.4 134.7,167.2 132.8,169.6 135,168.4 133.2,171.4 135.3,170.1 133.5,172.8 135.6,171.5 						"/>
						<polyline fill="none" stroke="#13374C" stroke-linecap="round" stroke-linejoin="round" points="73.8,135.6 75.1,134.9 
							74.5,136.7 78.8,134.2 75.5,137.7 82.8,133.5 77,139.1 79.3,137.7 78.4,140.3 80.6,139 79.4,141.3 81.7,140 80.9,142.7 
							83.2,141.4 81.9,143.6 84.1,142.3 82.7,144.3 85,143.1 83.8,145.3 86,144 84.8,146.2 87,144.9 85.8,147.1 88,145.8 86.7,148 
							88.9,146.7 87.8,149 90,147.7 89.2,150.3 91.4,149 90.1,151.1 92.4,149.8 91.1,152 93.4,150.8 92.3,153.7 94.7,152.3 
							92.6,155.4 95.1,153.9 92.4,157.1 95,155.6 92.1,158.9 94.8,157.4 91.9,160.8 94.5,159.3 91.7,162.1 94.3,160.6 91.5,163.8 
							94.1,162.3 91.1,166.2 93.8,164.7 90.9,167.9 93.5,166.4 90.6,169.5 93.3,168 90.3,172 92.9,170.4 90.1,173.3 92.7,171.8 
							89.9,174.8 92.5,173.3 89.6,176.7 92.7,175 89.4,178.4 112.5,165.1 89.5,179.6 114.2,165.3 111.4,168.1 115.4,165.8 
							114.2,168 116.8,166.5 115.9,168.7 118.4,167.3 117,169.3 119.5,167.8 118.2,169.9 120.8,168.4 119.5,170.5 122,169 
							120.8,171.2 123.4,169.7 122.8,172.1 125.4,170.7 123.9,172.7 126.5,171.2 125.9,173.7 128.5,172.2 127.1,174.2 129.6,172.7 
							128.8,175 131.3,173.6 130.1,175.7 135.8,172.4 131.3,176.3 136,173.6 132.9,177 136.3,175 134.5,177.8 136.6,176.6 
							135.9,178.4 136.8,177.9 						"/>
						<polyline fill="none" stroke="#13374C" stroke-linecap="round" stroke-linejoin="round" points="80.5,136.3 86.4,132.9 
							83.6,135.8 89.5,132.4 87.4,135.1 93.3,131.7 92.2,134.2 98.6,130.6 95.4,133.7 102.8,129.4 99.2,133 101.6,131.6 						"/>
						<polyline fill="none" stroke="#13374C" stroke-linecap="round" stroke-linejoin="round" points="110.2,107.5 111.2,106.9 
							108.8,110.4 112.3,108.4 107.9,112.4 112.9,109.6 106.9,114.7 110.6,112.6 105.9,116.9 109.4,114.9 104.9,119.1 108.5,117 
							103.7,121.6 107.3,119.5 102.5,124.4 106,122.4 101.3,127 104.8,125 100.1,129.3 103.8,127.1 						"/>
					</g>
					<g>
						<polyline fill="none" stroke="#FFFC9D" stroke-linecap="round" stroke-linejoin="round" points="79.2,137.1 80.6,136.4 
							79.7,138.1 83.6,135.8 80.7,139 87.4,135.2 82,140.2 92.2,134.3 82.9,141 95.4,133.8 84.3,142.3 117.4,123.2 85.7,143.6 
							118.3,124.8 86.5,144.3 118.7,125.7 87.9,145.7 119.6,127.4 89.4,147 120.5,129 90.4,147.9 121.1,130.2 91.4,148.9 
							121.9,131.2 92.8,150.2 123.8,132.3 94.1,151.4 126.6,132.6 95,153 129.6,133 95.2,154.9 132.6,133.3 94.9,157.2 135.7,133.7 
							94.6,159.3 138.4,134 94.3,161.7 141.6,134.4 94,163.4 143.8,134.7 93.7,165.6 143.5,136.8 93.5,166.9 140.8,139.6 
							93.3,168.3 137.9,142.6 93,170.4 133.8,146.8 92.8,172.1 130.4,150.4 92.5,174.2 129.5,152.8 93,175.1 129.6,154 113.6,165 
							129.9,155.6 115.3,165.7 130.2,157.1 116.9,166.4 130.5,158.6 118,167 130.7,159.6 119.8,167.9 131.1,161.4 121.6,168.7 
							131.4,163.1 123.7,169.8 131.8,165.1 125.5,170.6 132.2,166.8 126.9,171.3 132.4,168.1 128.5,172.1 132.8,169.6 130.1,172.9 
							133.1,171.2 131.8,173.7 133.4,172.8 						"/>
						<polyline fill="none" stroke="#FFFC9D" stroke-linecap="round" stroke-linejoin="round" points="110.4,113.1 111.4,112.5 
							109,116 112.5,114 108.1,118 113.1,115.1 107.1,120.3 113.8,116.4 106.1,122.5 114.5,117.6 105.1,124.6 115.1,118.9 
							103.9,127.2 115.9,120.3 102.6,130 116.7,121.9 						"/>
					</g>
				</g>
			</g>
			<g>
				<g>
					<g>
						<polyline fill="none" stroke="#13374C" stroke-linecap="round" stroke-linejoin="round" points="623.8,169.8 625.4,168.9 
							624.8,171 626.1,170.2 625.5,172.2 626.7,171.5 626,173.2 627.2,172.5 626.7,174.5 627.9,173.8 627.6,176.2 628.8,175.5 
							628.1,177.1 629.3,176.4 628.8,178.5 630,177.7 629.4,179.6 630.7,178.9 630.5,181.1 632.1,180.2 631.8,181.8 633.6,180.7 
							633.6,182.2 635.7,181 636.3,182.5 638.4,181.3 638.1,182.7 640.2,181.5 641.1,183 643.2,181.8 643.8,183.4 646,182.2 
							643.4,185.6 647.6,183.3 640.1,189.1 644.8,186.4 636.5,192.8 641.1,190.1 635.5,195 637.9,193.6 635.5,196.4 637,195.5 
							635.9,198.3 637.2,197.6 636.3,200.3 637.6,199.6 636.5,201.4 637.8,200.7 636.8,202.9 638.1,202.2 637,204 638.3,203.3 
							637.3,205.6 638.6,204.8 637.6,207 638.9,206.2 						"/>
						<polyline fill="none" stroke="#13374C" stroke-linecap="round" stroke-linejoin="round" points="600.3,184.3 601.6,183.5 
							600.9,185.4 605.3,182.9 602,186.3 603.7,185.4 603.5,187.7 604.8,186.9 604.9,188.9 606.2,188.2 605.9,189.9 607.3,189.1 
							607.4,191.3 608.8,190.5 608.4,192.2 609.7,191.4 609.2,193 610.6,192.2 610.3,193.9 611.6,193.1 611.1,194.9 612.5,194.1 
							611.6,196.1 613.1,195.2 611.7,197.5 613.3,196.6 611.5,199.2 613.1,198.3 611.2,201.5 612.8,200.5 611,203 612.6,202.1 
							610.7,204.6 612.4,203.7 610.4,207.1 612,206.2 610.1,209.2 611.8,208.2 609.9,210.9 623.1,203.3 623,205 626.1,203.2 
							626.1,204.9 627.8,204 627.3,205.4 628.9,204.5 628.8,206.2 630.3,205.2 630.8,207.2 632.4,206.3 632.3,207.9 633.9,207 
							633.7,208.6 635.3,207.6 635.8,209.6 639.2,207.6 637,210.2 639.4,208.8 638.3,210.8 639.6,210 						"/>
						<polyline fill="none" stroke="#13374C" stroke-linecap="round" stroke-linejoin="round" points="605,184.4 608.6,182.3 
							608.1,183.8 611.7,181.7 611.9,183.2 618.7,179.2 615.2,182.6 617.6,181.2 						"/>
						<polyline fill="none" stroke="#13374C" stroke-linecap="round" stroke-linejoin="round" points="622.7,167 623.7,166.4 
							621.3,169.9 624.8,167.9 620.4,171.8 622.6,170.6 619.4,174.2 621.6,172.9 618.4,176.4 620.6,175.1 617.4,178.5 619.6,177.2 
													"/>
					</g>
					<g>
						<polyline fill="none" stroke="#FFFC9D" stroke-linecap="round" stroke-linejoin="round" points="603.7,185.2 605,184.4 
							604.2,186.2 608.1,183.9 605.2,187.1 611.9,183.2 606.5,188.3 627.5,176.2 607.4,189.1 628,177.2 608.8,190.4 628.9,178.8 
							610.2,191.7 629.8,180.3 611,192.4 630.5,181.1 612.4,193.7 632.5,182.1 613.2,195.4 635.6,182.5 613.4,196.8 637.8,182.7 
							613.2,198.5 640,183 612.9,200.8 643.1,183.3 612.5,202.9 644.1,184.7 612.2,205.2 639.7,189.4 611.9,207.5 635.8,193.7 
							622.9,203.3 635.3,196.1 626.3,203.2 635.7,197.8 628.4,204.2 636.1,199.7 629.9,204.9 636.3,201.2 631.7,205.8 636.7,202.9 
							632.9,206.4 636.9,204 634.1,207 637.2,205.2 635.9,207.8 637.5,206.9 						"/>
						<polyline fill="none" stroke="#FFFC9D" stroke-linecap="round" stroke-linejoin="round" points="622.8,170.5 623.8,169.9 
							621.4,173.4 624.9,171.4 620.5,175.3 625.5,172.5 619.5,177.7 626.2,173.8 618.5,179.9 626.9,175 						"/>
					</g>
				</g>
			</g>
			<g>
				<g>
					<g>
						<polyline fill="none" stroke="#13374C" stroke-linecap="round" stroke-linejoin="round" points="1344.7,201.4 1346.1,200.6 
							1345.7,202.5 1346.8,201.9 1346.4,203.8 1347.5,203.2 1346.9,204.8 1348,204.2 1347.6,206.1 1348.7,205.5 1348.5,207.8 
							1349.6,207.1 1349,208.7 1350.1,208.1 1349.7,210.1 1350.9,209.4 1350.5,211.1 1351.9,210.3 1352.4,212.1 1354.2,211.1 
							1354.5,212.4 1356.3,211.3 1356.5,212.6 1358.3,211.6 1359.2,212.9 1361.1,211.9 1361,213.1 1362.8,212.1 1362.9,214.1 
							1365.5,212.6 1359.5,218 1363.6,215.7 1355.6,222.3 1359.2,220.2 1355,224.1 1356.8,223.1 1355.2,225.7 1356.4,225 
							1355.5,227.1 1356.6,226.4 1355.7,228.3 1356.9,227.7 1356.1,230.3 1357.3,229.6 1356.5,232.3 1357.7,231.6 1356.7,233.4 
							1357.9,232.7 1356.8,234.7 1358.2,234 						"/>
						<polyline fill="none" stroke="#13374C" stroke-linecap="round" stroke-linejoin="round" points="1323.9,214.2 1325.2,213.4 
							1324.6,215.3 1328.9,212.8 1325.6,216.2 1326.9,215.5 1327.1,217.6 1328.3,216.9 1328.5,218.8 1329.7,218.1 1329.5,219.8 
							1330.7,219.1 1331,221.2 1332.2,220.5 1332,222.1 1333.2,221.4 1332.8,222.9 1334,222.2 1333.5,224 1334.8,223.2 
							1333.9,225.3 1335.3,224.5 1333.8,226.8 1335.2,226 1333.6,228.4 1335,227.5 1333.4,230.1 1334.8,229.3 1333,232.4 
							1334.5,231.6 1332.8,233.9 1334.2,233.1 1332.6,235.5 1334,234.7 1332.4,238 1344.6,230.9 1345.5,232.3 1347.3,231.2 
							1347.4,232.7 1348.8,232 1349,233.5 1350.4,232.7 1350.6,234.3 1352,233.5 1351.8,234.9 1353.2,234.1 1353.2,235.6 
							1354.6,234.8 1355.3,236.6 1358.3,234.8 1356.8,237.3 1358.6,236.2 						"/>
						<polyline fill="none" stroke="#13374C" stroke-linecap="round" stroke-linejoin="round" points="1328.3,214.1 1331.4,212.3 
							1331.3,213.6 1334.5,211.8 1335.1,212.9 1339.8,210.2 						"/>
						<polyline fill="none" stroke="#13374C" stroke-linecap="round" stroke-linejoin="round" points="1343.6,198.9 1344.6,198.4 
							1342.2,201.9 1345.7,199.9 1341.3,203.8 1343.3,202.7 1340.3,206.1 1342.2,205 1339.3,208.4 1341.2,207.2 1338.2,210.1 
							1340.5,208.9 						"/>
					</g>
					<g>
						<polyline fill="none" stroke="#FFFC9D" stroke-linecap="round" stroke-linejoin="round" points="1326.9,215 1328.3,214.2 
							1327.4,216 1331.3,213.7 1328.4,216.9 1335.1,213 1329.7,218.1 1348.2,207.4 1330.6,218.9 1348.7,208.4 1332,220.2 
							1349.6,210 1333.4,221.4 1350.8,211.4 1334.2,222.2 1351.8,212 1335.1,223.8 1354.7,212.5 1335.4,225.8 1357.8,212.8 
							1335.1,227.5 1360.1,213.1 1334.9,229.1 1362.1,213.4 1334.6,231.5 1361.3,216 1334.3,233.6 1357,220.5 1334.3,235.7 
							1355,223.7 1346.3,230.8 1355.1,225.7 1348.5,231.7 1355.5,227.6 1350.2,232.5 1355.8,229.3 1352.3,233.6 1356.2,231.3 
							1353.8,234.3 1356.5,232.7 1355.7,235.1 1356.8,234.5 						"/>
						<polyline fill="none" stroke="#FFFC9D" stroke-linecap="round" stroke-linejoin="round" points="1343.7,202.1 1344.7,201.5 
							1342.3,205 1345.8,203 1341.4,206.9 1346.4,204.1 1340.4,209.3 1347.1,205.4 1339.2,211.3 1347.7,206.5 						"/>
					</g>
				</g>
			</g>
			<g>
				<g>
					<g>
						<polyline fill="none" stroke="#13374C" stroke-linecap="round" stroke-linejoin="round" points="1952.4,137.4 1954.7,136.1 
							1953.4,138.6 1955.4,137.4 1954.1,139.9 1956.1,138.7 1954.6,140.8 1956.6,139.7 1955.3,142.1 1957.3,141 1956.2,143.8 
							1958.2,142.6 1956.7,144.8 1958.7,143.6 1957.4,146.1 1959.4,144.9 1958,147.2 1960,146.1 1958.9,148.9 1960.9,147.7 
							1959.4,150 1961.4,148.8 1960,151 1962,149.9 1960.8,152.5 1962.8,151.3 1961.3,153.4 1963.3,152.3 1962.1,155 1964.3,153.8 
							1963.2,156.3 1965.8,154.8 1965.1,157.2 1968.5,155.3 1967.3,157.5 1970.6,155.6 1969.7,157.8 1973,155.8 1971.9,158 
							1975.3,156.1 1974,158.3 1977.3,156.3 1977.1,158.6 1980.5,156.7 1980.3,159 1983.7,157.1 1982.1,159.2 1985.5,157.3 
							1984.5,159.5 1987.8,157.5 1985.5,160.1 1989.6,157.8 1983.4,163.1 1990.6,158.9 1980,166.6 1987.5,162.3 1975.5,171.3 
							1983,166.9 1971.2,175.9 1978.3,171.8 1970.6,177.5 1975.6,174.6 1970.6,178.6 1973.7,176.9 1970.9,180.1 1973.2,178.8 
							1971.1,181.2 1973.3,179.9 1971.3,182.2 1973.5,181 1971.7,184 1973.8,182.8 1972,185.6 1974.2,184.4 1972.4,187.4 
							1974.5,186.2 1972.8,189.3 1974.9,188.1 1973.1,190.8 1975.2,189.5 1973.4,192.3 1975.5,191.1 1973.6,193.4 1975.7,192.2 
							1973.8,194.6 1976,193.4 1974.2,196.4 1976.3,195.1 1974.5,197.8 1976.6,196.5 						"/>
						<polyline fill="none" stroke="#13374C" stroke-linecap="round" stroke-linejoin="round" points="1914.8,160.6 1916.1,159.9 
							1915.5,161.7 1919.8,159.2 1916.5,162.7 1923.8,158.5 1918,164.1 1920.3,162.7 1919.4,165.3 1921.6,164 1920.4,166.3 
							1922.7,165 1921.9,167.7 1924.2,166.4 1922.9,168.6 1925.1,167.3 1923.7,169.3 1926,168.1 1924.8,170.3 1927,169 
							1925.8,171.2 1928,169.9 1926.8,172.1 1929,170.8 1927.7,173 1929.9,171.7 1928.8,174 1931,172.7 1930.2,175.3 1932.4,174 
							1931.1,176.1 1933.4,174.8 1932.1,177 1934.4,175.8 1933.3,178.7 1935.7,177.3 1933.6,180.4 1936.1,178.9 1933.4,182.1 
							1936,180.6 1933.1,183.9 1935.8,182.4 1932.9,185.8 1935.5,184.3 1932.7,187.1 1935.3,185.6 1932.5,188.8 1935.1,187.3 
							1932.1,191.2 1934.8,189.7 1931.9,192.9 1934.5,191.4 1931.6,194.5 1934.3,193 1931.3,197 1933.9,195.4 1931.1,198.3 
							1933.7,196.8 1930.9,199.8 1933.5,198.3 1930.6,201.7 1933.7,200 1930.4,203.4 1953.5,190.1 1930.5,204.6 1955.2,190.3 
							1952.4,193.1 1956.4,190.8 1955.2,193 1957.8,191.5 1956.9,193.7 1959.4,192.3 1958,194.3 1960.5,192.8 1959.2,194.9 
							1961.8,193.4 1960.5,195.5 1963,194 1961.8,196.2 1964.4,194.7 1963.8,197.1 1966.4,195.7 1964.9,197.7 1967.5,196.2 
							1966.9,198.7 1969.5,197.2 1968.1,199.2 1970.6,197.7 1969.8,200 1972.3,198.6 1971.1,200.7 1976.8,197.4 1972.3,201.3 
							1977,198.6 1973.9,202 1977.3,200 1975.5,202.8 1977.6,201.6 1976.9,203.4 1977.8,202.9 						"/>
						<polyline fill="none" stroke="#13374C" stroke-linecap="round" stroke-linejoin="round" points="1921.5,161.3 1927.4,157.9 
							1924.6,160.8 1930.5,157.4 1928.4,160.1 1934.3,156.7 1933.2,159.2 1939.6,155.6 1936.4,158.7 1943.8,154.4 1940.2,158 
							1942.6,156.6 						"/>
						<polyline fill="none" stroke="#13374C" stroke-linecap="round" stroke-linejoin="round" points="1951.2,132.5 1952.2,131.9 
							1949.8,135.4 1953.3,133.4 1948.9,137.4 1953.9,134.6 1947.9,139.7 1951.6,137.6 1946.9,141.9 1950.4,139.9 1945.9,144.1 
							1949.5,142 1944.7,146.6 1948.3,144.5 1943.5,149.4 1947,147.4 1942.3,152 1945.8,150 1941.1,154.3 1944.8,152.1 						"/>
					</g>
					<g>
						<polyline fill="none" stroke="#FFFC9D" stroke-linecap="round" stroke-linejoin="round" points="1920.2,162.1 1921.6,161.4 
							1920.7,163.1 1924.6,160.8 1921.7,164 1928.4,160.2 1923,165.2 1933.2,159.3 1923.9,166 1936.4,158.8 1925.3,167.3 
							1958.4,148.2 1926.7,168.6 1959.3,149.8 1927.5,169.3 1959.7,150.7 1928.9,170.7 1960.6,152.4 1930.4,172 1961.5,154 
							1931.4,172.9 1962.1,155.2 1932.4,173.9 1962.9,156.2 1933.8,175.2 1964.8,157.3 1935.1,176.4 1967.6,157.6 1936,178 
							1970.6,158 1936.2,179.9 1973.6,158.3 1935.9,182.2 1976.7,158.7 1935.6,184.3 1979.4,159 1935.3,186.7 1982.6,159.4 
							1935,188.4 1984.8,159.7 1934.7,190.6 1984.5,161.8 1934.5,191.9 1981.8,164.6 1934.3,193.3 1978.9,167.6 1934,195.4 
							1974.8,171.8 1933.8,197.1 1971.4,175.4 1933.5,199.2 1970.5,177.8 1934,200.1 1970.6,179 1954.6,190 1970.9,180.6 
							1956.3,190.7 1971.2,182.1 1957.9,191.4 1971.5,183.6 1959,192 1971.7,184.6 1960.8,192.9 1972.1,186.4 1962.6,193.7 
							1972.4,188.1 1964.7,194.8 1972.8,190.1 1966.5,195.6 1973.2,191.8 1967.9,196.3 1973.4,193.1 1969.5,197.1 1973.8,194.6 
							1971.1,197.9 1974.1,196.2 1972.8,198.7 1974.4,197.8 						"/>
						<polyline fill="none" stroke="#FFFC9D" stroke-linecap="round" stroke-linejoin="round" points="1951.4,138.1 1952.4,137.5 
							1950,141 1953.5,139 1949.1,143 1954.1,140.1 1948.1,145.3 1954.8,141.4 1947.1,147.5 1955.5,142.6 1946.1,149.6 
							1956.1,143.9 1944.9,152.2 1956.9,145.3 1943.6,155 1957.7,146.9 						"/>
					</g>
				</g>
			</g>
			<polyline fill="none" stroke="#13374C" stroke-linecap="round" stroke-linejoin="round" points="111,167.3 111.5,167 111,169.5 
				114,167.8 111,170.9 114,169.2 111,172.6 114,170.9 111,174.2 114,172.5 111,175.8 114,174.1 111,177.7 114,176 111,179.7 
				114,178 111,181.7 114,180 111,183.2 114,181.5 111,184.9 114,183.1 111,186.4 114,184.7 111,188.1 114,186.4 111,189.3 
				114,187.6 111,191.4 114,189.7 111,192.9 114,191.2 111,194.5 114,192.8 111,196 114,194.3 111,197.3 114,195.6 111,198.9 
				114,197.2 111,201.2 114,199.5 111,203.1 114,201.4 111,204.6 114,202.9 111,206.8 114,205.1 111,208.9 114,207.2 111,211.2 
				114,209.5 111,213.2 114,211.5 111,214.6 114,212.9 112.1,216 114,214.9 			"/>
			<polyline fill="none" stroke="#13374C" stroke-linecap="round" stroke-linejoin="round" points="1952,191.3 1952.5,191 
				1952,193.5 1955,191.8 1952,194.9 1955,193.2 1952,196.6 1955,194.9 1952,198.2 1955,196.5 1952,199.8 1955,198.1 1952,201.7 
				1955,200 1952,203.7 1955,202 1952,205.7 1955,204 1952,207.2 1955,205.5 1952,208.9 1955,207.1 1952,210.4 1955,208.7 
				1952,212.1 1955,210.4 1952,213.3 1955,211.6 1952,215.4 1955,213.7 1952,216.9 1955,215.2 1952,218.5 1955,216.8 1952,220 
				1955,218.3 1952,221.3 1955,219.6 1952,222.9 1955,221.2 1952,225.2 1955,223.5 1952,227.1 1955,225.4 1952,228.6 1955,226.9 
				1952,230.8 1955,229.1 1952,232.9 1955,231.2 1952,235.2 1955,233.5 1952,237.2 1955,235.5 1952,238.6 1955,236.9 1952,240.6 
				1955,238.9 1952,242.6 1955,240.9 1952,244.4 1955,242.7 1952,246.7 1955,245 1952,248.2 1955,246.4 1952,250.4 1955,248.7 
				1952,252.6 1955,250.9 1952,254.9 1955,253.2 1954.1,256 1955,255.5 			"/>
			<polyline fill="none" stroke="#13374C" stroke-linecap="round" stroke-linejoin="round" points="624,204.3 624.5,204 624,206.5 
				626,205.3 624,207.9 626,206.8 624,209.6 626,208.5 624,211.2 626,210.1 624,212.8 626,211.7 624,214.7 626,213.5 624,216.7 
				626,215.6 624,218.7 626,217.5 624,220.2 626,219.1 624,221.9 626,220.7 624,223.4 626,222.3 624,225.1 626,224 624,226.3 
				626,225.1 624,228.4 626,227.2 624,229.9 626,228.8 624,231.5 626,230.4 624,233 626,231.9 624,234.3 626,233.2 624,235.9 
				626,234.8 624,238.2 626,237.1 624,240.1 626,239 624,241.6 626,240.4 624,243.8 626,242.6 624,245.9 626,244.8 624,248.2 
				626,247 624,250.2 626,249.1 624,251.6 626,250.5 625.1,253 626,252.4 			"/>
			<polyline fill="none" stroke="#13374C" stroke-linecap="round" stroke-linejoin="round" points="1344,232.3 1344.5,232 
				1344,234.5 1346,233.3 1344,235.9 1346,234.8 1344,237.6 1346,236.5 1344,239.2 1346,238.1 1344,240.8 1346,239.7 1344,242.7 
				1346,241.5 1344,244.7 1346,243.6 1344,246.7 1346,245.5 1344,248.2 1346,247.1 1344,249.9 1346,248.7 1344,251.4 1346,250.3 
				1344,253.1 1346,252 1344,254.3 1346,253.1 1344,256.4 1346,255.2 1344,257.9 1346,256.8 1344,259.5 1346,258.4 1344,261 
				1346,259.9 1344,262.3 1346,261.2 1344,263.9 1346,262.8 1344,266.2 1346,265.1 1344,268.1 1346,267 1344,269.6 1346,268.4 
				1344,271.8 1346,270.6 1344,273.9 1346,272.8 1344,276.2 1346,275 1344,278.2 1346,277.1 1344,279.6 1346,278.5 1345.1,281 
				1346,280.4 			"/>
		</g>
	</g>
</g>
<g id="Large_Yellow_Stars" display="none">
	<g display="inline">
		<path fill="#FFFC9D" d="M144.9,199.6c0.4,1.6-0.5,2.4-2,1.7l-21.4-9.6c-1.5-0.7-3.9-0.5-5.3,0.3l-20,12.2
			c-1.4,0.9-2.4,0.2-2.2-1.4l2.5-23.3c0.2-1.6-0.7-3.9-2-4.9l-17.8-15.3c-1.3-1.1-1-2.2,0.7-2.6l22.9-4.8c1.6-0.3,3.5-1.9,4.1-3.4
			l9.1-21.6c0.6-1.5,1.8-1.6,2.7-0.2l11.7,20.3c0.8,1.4,2.8,2.7,4.5,2.8l23.4,1.9c1.6,0.1,2.1,1.2,1,2.5l-15.7,17.4
			c-1.1,1.2-1.7,3.5-1.3,5.1L144.9,199.6z"/>
	</g>
	<g display="inline">
		<path fill="#FFFC9D" d="M632.3,228.7c-0.4,1.6-1.6,1.8-2.6,0.5l-14.1-18.7c-1-1.3-3.2-2.3-4.8-2.3l-23.4,1c-1.6,0.1-2.2-1-1.3-2.3
			l13.5-19.2c0.9-1.4,1.3-3.7,0.7-5.3l-8.2-22c-0.6-1.5,0.2-2.4,1.8-1.9l22.4,6.9c1.6,0.5,3.9,0,5.2-1l18.4-14.6
			c1.3-1,2.4-0.5,2.4,1.1l0.4,23.4c0,1.6,1.2,3.7,2.5,4.7l19.5,13c1.4,0.9,1.2,2.1-0.3,2.6l-22.2,7.6c-1.6,0.5-3.2,2.3-3.6,3.9
			L632.3,228.7z"/>
	</g>
	<g display="inline">
		<path fill="#FFFC9D" d="M1178.9,166.4c1.4,0.9,1.3,2.1-0.2,2.6l-21.9,8.4c-1.5,0.6-3.1,2.4-3.5,4l-5.5,22.8
			c-0.4,1.6-1.6,1.9-2.6,0.6l-14.8-18.2c-1-1.3-3.2-2.2-4.9-2.1l-23.4,1.8c-1.6,0.1-2.3-0.9-1.4-2.3l12.8-19.7
			c0.9-1.4,1.1-3.8,0.5-5.3l-9-21.7c-0.6-1.5,0.2-2.4,1.8-2l22.6,6.1c1.6,0.4,3.9-0.1,5.2-1.2l17.8-15.2c1.3-1.1,2.4-0.6,2.4,1
			l1.2,23.4c0.1,1.6,1.3,3.7,2.7,4.6L1178.9,166.4z"/>
	</g>
	<g display="inline">
		<path fill="#FFFC9D" d="M1521.4,202.5c-1.4,0.9-2.4,0.3-2.3-1.3l1.6-23.4c0.1-1.6-0.8-3.8-2.1-4.9l-18.3-14.6
			c-1.3-1-1-2.2,0.6-2.6l22.8-5.7c1.6-0.4,3.4-2,4-3.5l8.2-22c0.6-1.5,1.8-1.7,2.6-0.3l12.4,19.9c0.9,1.4,2.9,2.6,4.6,2.7l23.4,1
			c1.6,0.1,2.1,1.2,1.1,2.4l-15.1,18c-1.1,1.3-1.6,3.6-1.1,5.2l6.2,22.6c0.4,1.6-0.5,2.4-2,1.8l-21.7-8.8c-1.5-0.6-3.9-0.4-5.3,0.5
			L1521.4,202.5z"/>
	</g>
	<g display="inline">
		<path fill="#FFFC9D" d="M1976.9,226.1c0.1,1.6-1,2.2-2.3,1.3l-19.3-13.4c-1.4-0.9-3.7-1.2-5.3-0.6l-21.9,8.3
			c-1.5,0.6-2.4-0.2-1.9-1.8l6.7-22.5c0.5-1.6,0-3.9-1-5.2l-14.7-18.3c-1-1.3-0.5-2.4,1.1-2.4l23.4-0.5c1.6,0,3.7-1.2,4.6-2.6
			l12.9-19.6c0.9-1.4,2.1-1.2,2.6,0.3l7.7,22.1c0.5,1.6,2.3,3.2,3.9,3.6l22.6,6.2c1.6,0.4,1.8,1.6,0.5,2.6l-18.7,14.2
			c-1.3,1-2.3,3.2-2.2,4.8L1976.9,226.1z"/>
	</g>
</g>
<g id="Clouds">
	<circle fill="#13374C" cx="46" cy="308" r="78"/>
	<circle fill="#13374C" cx="147.5" cy="307.5" r="102.5"/>
	<circle fill="#13374C" cx="71" cy="234" r="26"/>
	<circle fill="#13374C" cx="252" cy="321" r="75"/>
	<circle fill="#13374C" cx="338.5" cy="294.5" r="78.5"/>
	<circle fill="#13374C" cx="397" cy="307" r="70"/>
	<circle fill="#13374C" cx="537" cy="314" r="111"/>
	<circle fill="#13374C" cx="446.5" cy="258.5" r="27.5"/>
	<circle fill="#13374C" cx="673" cy="321" r="66"/>
	<circle fill="#13374C" cx="786.5" cy="316.5" r="119.5"/>
	<circle fill="#13374C" cx="629.5" cy="256.5" r="20.5"/>
	<circle fill="#13374C" cx="683" cy="251" r="38"/>
	<circle fill="#13374C" cx="867.5" cy="313.5" r="90.5"/>
	<circle fill="#13374C" cx="987.5" cy="342.5" r="75.5"/>
	<circle fill="#13374C" cx="1105" cy="309" r="106"/>
	<circle fill="#13374C" cx="1246.5" cy="359.5" r="106.5"/>
	<circle fill="#13374C" cx="1379.5" cy="337.5" r="78.5"/>
	<circle fill="#13374C" cx="1497" cy="326" r="117"/>
	<circle fill="#13374C" cx="1292.3" cy="293.8" r="52.3"/>
	<circle fill="#13374C" cx="1642" cy="326" r="90"/>
	<circle fill="#13374C" cx="1731.5" cy="308.5" r="101.5"/>
	<circle fill="#13374C" cx="1780" cy="349" r="99"/>
	<circle fill="#13374C" cx="1937" cy="331" r="81"/>
	<circle fill="#13374C" cx="1903.4" cy="272.8" r="49.3"/>
	<circle fill="#13374C" cx="1000.9" cy="266.9" r="34.1"/>
	<circle fill="#13374C" cx="943" cy="269" r="30.8"/>
	<circle fill="#13374C" cx="1205" cy="261.5" r="36"/>
	<circle fill="#13374C" cx="1393.5" cy="269" r="27.5"/>
	<circle fill="#13374C" cx="1586" cy="248.5" r="45"/>
	<circle fill="#13374C" cx="1642.2" cy="250.8" r="27.2"/>
	<circle fill="#13374C" cx="1832.5" cy="272.5" r="42.6"/>
	<circle fill="#13374C" cx="1999.3" cy="262.3" r="35.3"/>
	<circle fill="#13374C" cx="228.9" cy="250.1" r="23.1"/>
</g>
<g id="Small_Golden_Stars">
	<g>
		<path fill="#E0D505" d="M38.2,204.1c1,0.5,1,1.3,0,1.8l-1.8,0.9c-1,0.5-1.9,1.8-2.1,2.9l-0.3,2c-0.2,1.1-0.9,1.3-1.7,0.5l-1.4-1.4
			c-0.8-0.8-2.3-1.3-3.4-1.1l-1.9,0.3c-1.1,0.2-1.6-0.5-1-1.4l0.9-1.7c0.5-1,0.5-2.6,0-3.5l-0.9-1.7c-0.5-1,0-1.6,1-1.4l1.9,0.3
			c1.1,0.2,2.6-0.3,3.4-1.1l1.4-1.4c0.8-0.8,1.5-0.5,1.7,0.5l0.3,2c0.2,1.1,1.1,2.4,2.1,2.9L38.2,204.1z"/>
	</g>
	<g>
		<path fill="#E0D505" d="M281.2,227.1c1,0.5,1,1.3,0,1.8l-1.8,0.9c-1,0.5-1.9,1.8-2.1,2.9l-0.3,2c-0.2,1.1-0.9,1.3-1.7,0.5
			l-1.4-1.4c-0.8-0.8-2.3-1.3-3.4-1.1l-1.9,0.3c-1.1,0.2-1.6-0.5-1-1.4l0.9-1.7c0.5-1,0.5-2.6,0-3.5l-0.9-1.7c-0.5-1,0-1.6,1-1.4
			l1.9,0.3c1.1,0.2,2.6-0.3,3.4-1.1l1.4-1.4c0.8-0.8,1.5-0.5,1.7,0.5l0.3,2c0.2,1.1,1.1,2.4,2.1,2.9L281.2,227.1z"/>
	</g>
	<g>
		<path fill="#E0D505" d="M465.2,212.1c1,0.5,1,1.3,0,1.8l-1.8,0.9c-1,0.5-1.9,1.8-2.1,2.9l-0.3,2c-0.2,1.1-0.9,1.3-1.7,0.5
			l-1.4-1.4c-0.8-0.8-2.3-1.3-3.4-1.1l-1.9,0.3c-1.1,0.2-1.6-0.5-1-1.4l0.9-1.7c0.5-1,0.5-2.6,0-3.5l-0.9-1.7c-0.5-1,0-1.6,1-1.4
			l1.9,0.3c1.1,0.2,2.6-0.3,3.4-1.1l1.4-1.4c0.8-0.8,1.5-0.5,1.7,0.5l0.3,2c0.2,1.1,1.1,2.4,2.1,2.9L465.2,212.1z"/>
	</g>
	<g>
		<path fill="#E0D505" d="M717.2,200.1c1,0.5,1,1.3,0,1.8l-1.8,0.9c-1,0.5-1.9,1.8-2.1,2.9l-0.3,2c-0.2,1.1-0.9,1.3-1.7,0.5
			l-1.4-1.4c-0.8-0.8-2.3-1.3-3.4-1.1l-1.9,0.3c-1.1,0.2-1.6-0.5-1-1.4l0.9-1.7c0.5-1,0.5-2.6,0-3.5l-0.9-1.7c-0.5-1,0-1.6,1-1.4
			l1.9,0.3c1.1,0.2,2.6-0.3,3.4-1.1l1.4-1.4c0.8-0.8,1.5-0.5,1.7,0.5l0.3,2c0.2,1.1,1.1,2.4,2.1,2.9L717.2,200.1z"/>
	</g>
	<g>
		<path fill="#E0D505" d="M975.2,223.1c1,0.5,1,1.3,0,1.8l-1.8,0.9c-1,0.5-1.9,1.8-2.1,2.9l-0.3,2c-0.2,1.1-0.9,1.3-1.7,0.5
			l-1.4-1.4c-0.8-0.8-2.3-1.3-3.4-1.1l-1.9,0.3c-1.1,0.2-1.6-0.5-1-1.4l0.9-1.7c0.5-1,0.5-2.6,0-3.5l-0.9-1.7c-0.5-1,0-1.6,1-1.4
			l1.9,0.3c1.1,0.2,2.6-0.3,3.4-1.1l1.4-1.4c0.8-0.8,1.5-0.5,1.7,0.5l0.3,2c0.2,1.1,1.1,2.4,2.1,2.9L975.2,223.1z"/>
	</g>
	<g>
		<path fill="#E0D505" d="M1259.2,230.1c1,0.5,1,1.3,0,1.8l-1.8,0.9c-1,0.5-1.9,1.8-2.1,2.9l-0.3,2c-0.2,1.1-0.9,1.3-1.7,0.5
			l-1.4-1.4c-0.8-0.8-2.3-1.3-3.4-1.1l-1.9,0.3c-1.1,0.2-1.6-0.5-1-1.4l0.9-1.7c0.5-1,0.5-2.6,0-3.5l-0.9-1.7c-0.5-1,0-1.6,1-1.4
			l1.9,0.3c1.1,0.2,2.6-0.3,3.4-1.1l1.4-1.4c0.8-0.8,1.5-0.5,1.7,0.5l0.3,2c0.2,1.1,1.1,2.4,2.1,2.9L1259.2,230.1z"/>
	</g>
	<g>
		<path fill="#E0D505" d="M1414.2,219.1c1,0.5,1,1.3,0,1.8l-1.8,0.9c-1,0.5-1.9,1.8-2.1,2.9l-0.3,2c-0.2,1.1-0.9,1.3-1.7,0.5
			l-1.4-1.4c-0.8-0.8-2.3-1.3-3.4-1.1l-1.9,0.3c-1.1,0.2-1.6-0.5-1-1.4l0.9-1.7c0.5-1,0.5-2.6,0-3.5l-0.9-1.7c-0.5-1,0-1.6,1-1.4
			l1.9,0.3c1.1,0.2,2.6-0.3,3.4-1.1l1.4-1.4c0.8-0.8,1.5-0.5,1.7,0.5l0.3,2c0.2,1.1,1.1,2.4,2.1,2.9L1414.2,219.1z"/>
	</g>
	<g>
		<path fill="#E0D505" d="M1670.2,209.1c1,0.5,1,1.3,0,1.8l-1.8,0.9c-1,0.5-1.9,1.8-2.1,2.9l-0.3,2c-0.2,1.1-0.9,1.3-1.7,0.5
			l-1.4-1.4c-0.8-0.8-2.3-1.3-3.4-1.1l-1.9,0.3c-1.1,0.2-1.6-0.5-1-1.4l0.9-1.7c0.5-1,0.5-2.6,0-3.5l-0.9-1.7c-0.5-1,0-1.6,1-1.4
			l1.9,0.3c1.1,0.2,2.6-0.3,3.4-1.1l1.4-1.4c0.8-0.8,1.5-0.5,1.7,0.5l0.3,2c0.2,1.1,1.1,2.4,2.1,2.9L1670.2,209.1z"/>
	</g>
	<g>
		<path fill="#E0D505" d="M1867.2,219.1c1,0.5,1,1.3,0,1.8l-1.8,0.9c-1,0.5-1.9,1.8-2.1,2.9l-0.3,2c-0.2,1.1-0.9,1.3-1.7,0.5
			l-1.4-1.4c-0.8-0.8-2.3-1.3-3.4-1.1l-1.9,0.3c-1.1,0.2-1.6-0.5-1-1.4l0.9-1.7c0.5-1,0.5-2.6,0-3.5l-0.9-1.7c-0.5-1,0-1.6,1-1.4
			l1.9,0.3c1.1,0.2,2.6-0.3,3.4-1.1l1.4-1.4c0.8-0.8,1.5-0.5,1.7,0.5l0.3,2c0.2,1.1,1.1,2.4,2.1,2.9L1867.2,219.1z"/>
	</g>
</g>
<g id="Moon">
	<path fill="#92BAD8" d="M1772.5,42.7c3.1,5.1,4.9,11.2,4.9,17.6c0,18.8-15.3,34.1-34.1,34.1c-5.7,0-11.1-1.4-15.8-3.9
		c6,9.9,16.8,16.5,29.2,16.5c18.8,0,34.1-15.3,34.1-34.1C1790.8,59.8,1783.3,48.4,1772.5,42.7z"/>
</g>
</svg>
